<svg xmlns="http://www.w3.org/2000/svg" viewBox="0 0 147.57 23.98"><defs><style>.cls-1{fill:#606060;}.cls-2{fill:#fff;}.cls-3{fill:#5cc153;}</style></defs><g id="Layer_2" data-name="Layer 2"><g id="Layer_3" data-name="Layer 3"><rect class="cls-1" width="147.57" height="23.98"/><path class="cls-2" d="M23.51,9.75H21.06v6.48H18.72V9.75H16.26v-2h7.25Z"/><path class="cls-2" d="M24.36,16.23V7.71H28A2.62,2.62,0,0,1,29.19,8a3,3,0,0,1,.9.67,3.13,3.13,0,0,1,.6.95,3,3,0,0,1,0,2.17,3.25,3.25,0,0,1-.57,1,2.56,2.56,0,0,1-.89.66,2.72,2.72,0,0,1-1.14.25H26.7v2.61Zm2.34-4.65h1.24a.55.55,0,0,0,.4-.2,1,1,0,0,0,.19-.72.93.93,0,0,0-.22-.72.69.69,0,0,0-.43-.19H26.7Z"/><path class="cls-2" d="M38.28,16.23V11.74L36.86,14.9H35.61l-1.43-3.16v4.49H31.84V7.71H34.4l1.83,4,1.85-4h2.54v8.52Z"/><path class="cls-2" d="M45.81,14.23a1.27,1.27,0,0,0,.69-.18,1.44,1.44,0,0,0,.47-.48,2,2,0,0,0,.26-.67,3.59,3.59,0,0,0,.09-.81V7.71h2.34v4.38a5.89,5.89,0,0,1-.23,1.66,3.52,3.52,0,0,1-.71,1.34,3.37,3.37,0,0,1-1.2.89,4.14,4.14,0,0,1-1.71.32A4,4,0,0,1,44.06,16,3.31,3.31,0,0,1,42.87,15a3.83,3.83,0,0,1-.69-1.33A6.09,6.09,0,0,1,42,12.09V7.71h2.34v4.38a3.59,3.59,0,0,0,.08.81,2.68,2.68,0,0,0,.26.69,1.38,1.38,0,0,0,.47.46A1.24,1.24,0,0,0,45.81,14.23Z"/><path class="cls-2" d="M56.16,10.5a5.83,5.83,0,0,0-.74-.39l-.73-.27a2.74,2.74,0,0,0-.78-.12,1.15,1.15,0,0,0-.5.09.34.34,0,0,0-.19.33.37.37,0,0,0,.11.27,1.11,1.11,0,0,0,.31.2,3.22,3.22,0,0,0,.5.17l.67.21a9.9,9.9,0,0,1,1.06.39,3.74,3.74,0,0,1,.81.51,1.93,1.93,0,0,1,.51.72,2.59,2.59,0,0,1,.18,1,2.67,2.67,0,0,1-.28,1.29,2.29,2.29,0,0,1-.74.83,3.13,3.13,0,0,1-1,.45,5.21,5.21,0,0,1-1.18.14,6.39,6.39,0,0,1-1-.07,8.41,8.41,0,0,1-1-.21,6.9,6.9,0,0,1-.94-.31,4.93,4.93,0,0,1-.83-.41l1-2.05a7.43,7.43,0,0,0,.88.47,5.86,5.86,0,0,0,.87.32,3.3,3.3,0,0,0,1,.15,1.14,1.14,0,0,0,.54-.1.31.31,0,0,0,.14-.27.38.38,0,0,0-.14-.31,1.49,1.49,0,0,0-.42-.22,5.56,5.56,0,0,0-.61-.19c-.22-.07-.47-.14-.72-.23a6,6,0,0,1-1-.42,2.4,2.4,0,0,1-.68-.5,2,2,0,0,1-.39-.64,2.64,2.64,0,0,1-.12-.83,2.77,2.77,0,0,1,.26-1.25,2.49,2.49,0,0,1,.7-.9,3,3,0,0,1,1-.54A3.7,3.7,0,0,1,54,7.64a4.6,4.6,0,0,1,.91.09,7.79,7.79,0,0,1,1.63.53l.65.3Z"/><path class="cls-2" d="M58.41,16.23V7.71h2.34v8.52Z"/><path class="cls-2" d="M61.74,11.9A4.31,4.31,0,0,1,62.89,9,4.34,4.34,0,0,1,66.1,7.66a4.29,4.29,0,0,1,2.14.51,3.37,3.37,0,0,1,1.35,1.35L67.8,10.8a1.43,1.43,0,0,0-.32-.52,1.46,1.46,0,0,0-.43-.32,1.85,1.85,0,0,0-.5-.17,2.92,2.92,0,0,0-.5,0,1.8,1.8,0,0,0-.87.2,1.85,1.85,0,0,0-.6.51,2.41,2.41,0,0,0-.35.72,3.21,3.21,0,0,0-.11.8,2.65,2.65,0,0,0,.13.85,2.24,2.24,0,0,0,.38.72,1.88,1.88,0,0,0,.62.5,1.75,1.75,0,0,0,.83.19,2.18,2.18,0,0,0,.49-.06,1.79,1.79,0,0,0,.9-.5,1.4,1.4,0,0,0,.3-.49l1.9,1.14a2.19,2.19,0,0,1-.58.84,3.71,3.71,0,0,1-.88.63,4.86,4.86,0,0,1-1.07.38A4.8,4.8,0,0,1,66,16.3a4,4,0,0,1-1.74-.37,4.51,4.51,0,0,1-1.35-1,4.3,4.3,0,0,1-.88-1.41A4.36,4.36,0,0,1,61.74,11.9Z"/><path class="cls-2" d="M70.37,16.23V14h1.85v2.21Z"/><path class="cls-2" d="M73.55,16.23V7.71h3.28a4.71,4.71,0,0,1,1.86.34,3.76,3.76,0,0,1,2.16,2.26A5,5,0,0,1,81.12,12a4.92,4.92,0,0,1-.3,1.76A4,4,0,0,1,80,15.06a4.07,4.07,0,0,1-1.36.87,4.92,4.92,0,0,1-1.76.3ZM78.75,12a2.83,2.83,0,0,0-.14-.9,2,2,0,0,0-.37-.7,1.83,1.83,0,0,0-.61-.45,2.08,2.08,0,0,0-.8-.16h-.94v4.44h.94a1.78,1.78,0,0,0,.81-.17,1.73,1.73,0,0,0,.61-.46,2.09,2.09,0,0,0,.37-.71A3.13,3.13,0,0,0,78.75,12Z"/><path class="cls-2" d="M88.21,14.19v2H82.14V7.71h6v2H84.48V11h3.1v1.9h-3.1v1.34Z"/><path class="cls-2" d="M91,7.71l1.67,5.58,1.64-5.58h2.46l-3.13,8.52H91.65L88.48,7.71Z"/><rect class="cls-3" x="112.99" width="34.59" height="23.98"/><path class="cls-2" d="M126.33,14.21A1.3,1.3,0,0,0,127,14a1.51,1.51,0,0,0,.47-.47,2.4,2.4,0,0,0,.26-.68,3.59,3.59,0,0,0,.08-.81V7.69h2.34v4.38a6,6,0,0,1-.22,1.67,3.7,3.7,0,0,1-.71,1.33A3.21,3.21,0,0,1,128,16a4.08,4.08,0,0,1-1.71.33,4,4,0,0,1-1.74-.35,3.24,3.24,0,0,1-1.2-.91,3.69,3.69,0,0,1-.68-1.34,5.71,5.71,0,0,1-.22-1.62V7.69h2.34v4.38a3.59,3.59,0,0,0,.09.81,2.11,2.11,0,0,0,.26.69,1.47,1.47,0,0,0,.46.47A1.36,1.36,0,0,0,126.33,14.21Z"/><path class="cls-2" d="M131.53,16.21V7.69h3.67a2.59,2.59,0,0,1,1.15.26,3.07,3.07,0,0,1,.91.67,3.22,3.22,0,0,1,.59,1,2.78,2.78,0,0,1,.22,1.08,2.93,2.93,0,0,1-.21,1.09,2.77,2.77,0,0,1-.57.95,2.61,2.61,0,0,1-.88.66,2.58,2.58,0,0,1-1.15.25h-1.39v2.61Zm2.34-4.65h1.23a.57.57,0,0,0,.41-.2,1.06,1.06,0,0,0,.18-.71.94.94,0,0,0-.21-.72.68.68,0,0,0-.44-.2h-1.17Z"/></g></g></svg>